HIERARCHY
ROOT Hips
{
	OFFSET 56.877701 -32.693596 43.373703
	CHANNELS 6 Xposition Yposition Zposition Zrotation Xrotation Yrotation
	JOINT Chest
	{
		OFFSET -0.779999 1.005800 5.403099
		CHANNELS 6 Xposition Yposition Zposition Zrotation Xrotation Yrotation
		JOINT Chest2
		{
			OFFSET 0.000000 0.000000 4.236801
			CHANNELS 6 Xposition Yposition Zposition Zrotation Xrotation Yrotation
			JOINT Neck
			{
				OFFSET 0.000000 0.000000 9.874401
				CHANNELS 6 Xposition Yposition Zposition Zrotation Xrotation Yrotation
				JOINT Head
				{
					OFFSET 0.000000 0.000002 2.173893
					CHANNELS 6 Xposition Yposition Zposition Zrotation Xrotation Yrotation
					End Site
					{
						OFFSET 0.000000 0.000000 6.508102
					}
				}
			}
			JOINT LeftCollar
			{
				OFFSET 2.681599 -0.377600 5.432499
				CHANNELS 6 Xposition Yposition Zposition Zrotation Xrotation Yrotation
				JOINT LeftShoulder
				{
					OFFSET 5.161499 0.000000 0.000000
					CHANNELS 6 Xposition Yposition Zposition Zrotation Xrotation Yrotation
					JOINT LeftElbow
					{
						OFFSET 0.000000 0.000000 -10.869099
						CHANNELS 6 Xposition Yposition Zposition Zrotation Xrotation Yrotation
						JOINT LeftWrist
						{
							OFFSET 0.000000 0.000000 -13.344799
							CHANNELS 6 Xposition Yposition Zposition Zrotation Xrotation Yrotation
							End Site
							{
								OFFSET 0.000000 0.000000 -2.173901
							}
						}
					}
				}
			}
			JOINT RightCollar
			{
				OFFSET -2.381901 -1.419600 6.136600
				CHANNELS 6 Xposition Yposition Zposition Zrotation Xrotation Yrotation
				JOINT RightShoulder
				{
					OFFSET -4.550499 0.000000 0.000000
					CHANNELS 6 Xposition Yposition Zposition Zrotation Xrotation Yrotation
					JOINT RightElbow
					{
						OFFSET 0.000000 0.000000 -11.106499
						CHANNELS 6 Xposition Yposition Zposition Zrotation Xrotation Yrotation
						JOINT RightWrist
						{
							OFFSET 0.000000 0.000000 -12.874298
							CHANNELS 6 Xposition Yposition Zposition Zrotation Xrotation Yrotation
							End Site
							{
								OFFSET 0.000000 0.000000 -2.173901
							}
						}
					}
				}
			}
		}
	}
	JOINT LeftHip
	{
		OFFSET 2.431900 0.469601 -2.489399
		CHANNELS 6 Xposition Yposition Zposition Zrotation Xrotation Yrotation
		JOINT LeftKnee
		{
			OFFSET 0.000000 -0.000004 -18.200201
			CHANNELS 6 Xposition Yposition Zposition Zrotation Xrotation Yrotation
			JOINT LeftAnkle
			{
				OFFSET 0.000000 0.000000 -16.279900
				CHANNELS 6 Xposition Yposition Zposition Zrotation Xrotation Yrotation
				End Site
				{
					OFFSET 0.000000 -8.394100 0.000000
				}
			}
		}
	}
	JOINT RightHip
	{
		OFFSET -1.987999 -0.073502 -2.713001
		CHANNELS 6 Xposition Yposition Zposition Zrotation Xrotation Yrotation
		JOINT RightKnee
		{
			OFFSET 0.000000 -0.000004 -19.547802
			CHANNELS 6 Xposition Yposition Zposition Zrotation Xrotation Yrotation
			JOINT RightAnkle
			{
				OFFSET 0.000000 0.000000 -14.881199
				CHANNELS 6 Xposition Yposition Zposition Zrotation Xrotation Yrotation
				End Site
				{
					OFFSET 0.000000 -7.922699 0.000000
				}
			}
		}
	}
}
MOTION
Frames: 5
Frame Time: 0.041667
-33.594398 -46.933800 44.050705 4606.121334 53.726463 -25.892474 -0.779994 1.005807 5.403094 -15.553847 2.469568 1.184990 -0.000005 0.000001 4.236793 4.517640 -4.803709 -0.668357 0.000004 0.000000 9.874400 18.553919 -33.499995 12.567207 0.000001 -0.000001 2.173895 1.055719 -4.806527 1.736561 2.681597 -0.377596 5.432499 -27.788871 14.250687 9.520033 5.161513 -0.000005 0.000004 119.898999 -166.148532 56.786326 0.000005 0.000007 -10.869102 78.118369 -12.346527 23.524109 -0.000001 -0.000006 -13.344805 -39.664589 2.848130 -69.591466 -2.381896 -1.419600 6.136594 25.482367 20.819984 0.020213 -4.550499 -0.000004 -0.000007 -1218.035612 -498.508952 -466.430941 0.000002 0.000000 -11.106506 676.408878 -19.920573 707.382366 0.000004 0.000009 -12.874292 -403.853786 -0.676036 -33.077233 2.431891 0.469614 -2.489395 -284.073687 -48.474365 57.861101 0.000003 -0.000012 -18.200207 349.983019 48.129246 -7.652643 -0.000004 0.000001 -16.279896 -24.691827 39.491703 -16.093848 -1.987997 -0.073491 -2.712997 -97.391251 -36.805444 -78.131920 -0.000007 -0.000001 -19.547802 -1598.519551 133.147134 -159.953919 0.000006 -0.000001 -14.881195 2020.161663 144.489879 -519.592161
-33.627007 -47.211098 43.789509 4603.219652 53.997867 -23.261848 -0.780008 1.005800 5.403085 -15.404472 4.152559 1.378553 0.000004 -0.000006 4.236790 4.297170 -4.738057 -0.654447 -0.000001 -0.000001 9.874393 17.041995 -30.062343 11.059908 0.000002 0.000006 2.173885 1.266146 -4.255067 1.332692 2.681597 -0.377588 5.432499 -26.939846 14.085153 7.917665 5.161502 -0.000004 -0.000001 117.693858 -160.117051 60.979628 0.000009 0.000011 -10.869102 76.457759 -11.966438 24.656264 -0.000013 -0.000006 -13.344801 -41.598881 2.239957 -68.222231 -2.381902 -1.419594 6.136600 25.410635 19.879180 0.742080 -4.550501 -0.000004 0.000000 -1216.200860 -497.449999 -465.734152 0.000000 0.000006 -11.106504 676.711920 -20.361687 707.059161 0.000001 -0.000001 -12.874299 -403.743192 -1.009383 -32.450123 2.431883 0.469600 -2.489401 -280.799950 -48.442256 62.845042 0.000008 -0.000002 -18.200195 356.265181 43.622677 -9.709845 -0.000002 0.000005 -16.279892 -33.809512 40.201776 -14.496115 -1.988010 -0.073497 -2.713007 -96.100400 -37.797539 -78.654109 -0.000012 -0.000009 -19.547802 -1596.696054 130.037185 -160.818102 0.000002 0.000004 -14.881200 2016.469208 146.363400 -518.691560
-33.689102 -47.524292 43.535103 4600.032958 53.950814 -20.265146 -0.780003 1.005795 5.403103 -14.926427 6.094963 1.562232 0.000004 -0.000001 4.236795 3.791707 -4.652312 -0.642314 -0.000001 -0.000007 9.874413 15.744286 -26.819187 9.789809 0.000001 0.000003 2.173900 1.491023 -3.585033 1.500415 2.681598 -0.377611 5.432511 -26.003246 13.984189 6.126349 5.161501 -0.000003 0.000001 116.696091 -155.308161 65.048563 -0.000008 0.000012 -10.869099 75.393500 -12.027412 25.067481 -0.000002 -0.000008 -13.344801 -41.253380 1.428157 -66.897215 -2.381901 -1.419598 6.136604 25.307196 18.595806 1.169315 -4.550501 -0.000008 0.000001 -1214.531889 -496.902382 -465.261230 0.000004 0.000000 -11.106508 676.936278 -20.979165 706.757922 0.000003 0.000000 -12.874298 -404.145053 -0.964822 -32.145814 2.431892 0.469598 -2.489398 -277.938101 -48.267287 67.074425 0.000004 -0.000011 -18.200199 360.764062 39.879125 -10.557840 0.000002 -0.000001 -16.279902 -42.198077 41.531495 -11.758204 -1.988003 -0.073503 -2.713000 -94.847142 -38.484537 -79.084459 -0.000002 -0.000006 -19.547798 -1595.989867 126.903030 -160.983911 -0.000001 -0.000006 -14.881196 2013.609053 147.969601 -518.325899
-33.788612 -47.857895 43.279598 4596.612837 53.555138 -17.011384 -0.780008 1.005803 5.403098 -14.209293 8.173252 1.647015 0.000008 -0.000003 4.236796 3.251611 -4.586814 -0.629814 -0.000005 0.000003 9.874398 14.902172 -23.301487 8.705145 -0.000001 0.000000 2.173896 1.224593 -3.005611 1.903839 2.681595 -0.377602 5.432503 -25.623187 14.429357 4.525377 5.161505 0.000018 -0.000002 115.614230 -149.577455 68.147666 0.000013 0.000006 -10.869101 73.918732 -11.985455 25.030815 0.000010 -0.000010 -13.344798 -40.098251 0.841299 -65.969164 -2.381897 -1.419592 6.136593 25.219229 17.388200 1.333196 -4.550507 0.000001 -0.000002 -1213.010997 -496.803809 -464.719623 0.000004 -0.000002 -11.106505 678.959162 -22.089686 707.125223 -0.000002 -0.000001 -12.874294 -406.374782 -1.033054 -31.539570 2.431894 0.469606 -2.489395 -275.612586 -48.072459 70.471973 0.000002 -0.000005 -18.200199 363.431306 37.231836 -10.512503 0.000005 -0.000001 -16.279898 -49.059131 43.849712 -8.203304 -1.988009 -0.073498 -2.713004 -93.499231 -39.003918 -79.223542 -0.000004 -0.000004 -19.547794 -1594.206587 123.169867 -162.089623 0.000001 -0.000001 -14.881201 2009.984790 150.020584 -518.052746
-33.921600 -48.204098 42.995705 4593.191404 52.863881 -13.701328 -0.779998 1.005808 5.403101 -13.418572 10.177617 1.596905 0.000007 0.000002 4.236794 2.840104 -4.506213 -0.617843 0.000004 0.000006 9.874401 13.791327 -19.451366 7.894897 0.000013 -0.000002 2.173891 1.094494 -2.408835 2.121889 2.681594 -0.377587 5.432498 -25.478455 14.917890 3.226371 5.161501 0.000005 0.000004 114.479646 -143.346341 70.806952 0.000003 0.000003 -10.869097 71.957293 -11.983228 24.774763 -0.000004 -0.000002 -13.344795 -38.478301 0.307032 -64.327842 -2.381898 -1.419590 6.136594 25.229389 16.686851 1.040126 -4.550510 -0.000010 -0.000001 -1211.352955 -496.956368 -463.558819 0.000003 -0.000002 -11.106502 679.561967 -22.792669 707.096263 -0.000003 -0.000003 -12.874294 -407.347510 -1.032632 -31.553671 2.431891 0.469602 -2.489388 -273.808951 -48.192363 73.136757 -0.000002 -0.000004 -18.200203 364.174949 36.336531 -10.175442 0.000006 -0.000007 -16.279900 -51.600167 45.830733 -6.496448 -1.988006 -0.073490 -2.712998 -92.214042 -39.147595 -79.167801 -0.000006 -0.000001 -19.547802 -1593.056492 119.652852 -162.930911 -0.000005 0.000002 -14.881195 2007.164414 151.434883 -518.220222
